<svg class="svg-icon" style="width: 1em;height: 1em;vertical-align: middle;fill: currentColor;overflow: hidden;" viewBox="0 0 1024 1024" version="1.1" xmlns="http://www.w3.org/2000/svg"><path d="M388.332 148V104c0-33 27-60 60-60h136.004c33 0 60 27 60 60v44" fill="#A9A9C9" /><path d="M644.336 178a30 30 0 0 1-30-30V104c0-16.544-13.452-30-30-30h-136.004c-16.544 0-30 13.456-30 30v44a30 30 0 0 1-60 0V104c0-49.628 40.372-90 90-90h136.004c49.624 0 90 40.372 90 90v44a30 30 0 0 1-30 30z" fill="#6E6E96" /><path d="M858.336 312v612c0 33-27 60-60 60H234.332c-33 0-60-27-60-60V312" fill="#A9A9C9" /><path d="M798.336 1014H234.332c-49.628 0-90-40.376-90-90V312a30 30 0 0 1 60 0v612c0 16.544 13.456 30 30 30h564.004c16.548 0 30-13.456 30-30V312c0-16.568 13.428-30 30-30s30 13.432 30 30v612c0 49.624-40.376 90-90 90z" fill="#6E6E96" /><path d="M944.336 232c0 33-27 60-60 60H148.332c-33 0-60-27-60-60v-24c0-33 27-60 60-60h736.004c33 0 60 27 60 60v24z" fill="#A9A9C9" /><path d="M884.336 322H148.332c-49.628 0-90-40.372-90-90v-24c0-49.628 40.372-90 90-90h736.004c49.624 0 90 40.372 90 90v24c0 49.628-40.376 90-90 90z m-736.004-144c-16.54 0-30 13.456-30 30v24c0 16.544 13.46 30 30 30h736.004c16.548 0 30-13.456 30-30v-24c0-16.544-13.452-30-30-30H148.332zM668.332 418h60v432h-60zM488.332 418h60v432h-60zM312.332 418h60v432h-60z" fill="#6E6E96" /><path d="M858.336 382H174.332a30 30 0 0 1 0-60h684.004c16.572 0 30 13.432 30 30s-13.428 30-30 30z" opacity=".15" /></svg>